<svg xmlns="http://www.w3.org/2000/svg" viewBox="0 0 800 600" font-family="Inter, Arial, sans-serif">
  <rect width="800" height="600" fill="#141414"/>
  
  <!-- Navbar -->
  <rect x="0" y="0" width="800" height="50" fill="#1a1a1a"/>
  <line x1="0" y1="50" x2="800" y2="50" stroke="#333" stroke-width="1"/>
  <rect x="15" y="12" width="20" height="26" fill="#e50914" rx="3"/>
  <text x="40" y="30" font-size="13" font-weight="bold" fill="#fff">STREAMSTORE</text>
  <text x="155" y="30" font-size="11" fill="#aaa">Home</text>
  <text x="200" y="30" font-size="11" fill="#aaa">Shop</text>
  <text x="245" y="30" font-size="11" fill="#aaa">Cart</text>
  <text x="285" y="30" font-size="11" fill="#aaa">Checkout</text>
  <text x="355" y="30" font-size="11" fill="#aaa">Contact</text>
  <rect x="580" y="14" width="140" height="22" fill="#2a2a2a" rx="4"/>
  <text x="590" y="30" font-size="9" fill="#666">Search products...</text>
  <circle cx="750" cy="25" r="8" fill="#333"/>
  <text x="746" y="29" font-size="10" fill="#fff">&#x1F6D2;</text>
  <circle cx="756" cy="19" r="5" fill="#e50914"/>
  
  <!-- Hero Section -->
  <rect x="0" y="50" width="800" height="200" fill="#1a1a1a"/>
  <!-- Hero image placeholder -->
  <rect x="0" y="50" width="800" height="200" fill="#222" opacity="0.5"/>
  <rect x="0" y="50" width="800" height="200" fill="url(#heroGrad)"/>
  <defs>
    <linearGradient id="heroGrad" x1="0" y1="0" x2="1" y2="0">
      <stop offset="0%" stop-color="#141414" stop-opacity="0.95"/>
      <stop offset="50%" stop-color="#141414" stop-opacity="0.6"/>
      <stop offset="100%" stop-color="#141414" stop-opacity="0.3"/>
    </linearGradient>
  </defs>
  <rect x="40" y="80" width="80" height="20" fill="#e50914" rx="2"/>
  <text x="48" y="94" font-size="9" font-weight="bold" fill="#fff">NEW SEASON</text>
  <text x="40" y="125" font-size="28" font-weight="bold" fill="#fff">Unlimited Shopping.</text>
  <text x="40" y="155" font-size="28" font-weight="bold" fill="#e50914">Endless Deals.</text>
  <text x="40" y="180" font-size="11" fill="#aaa">Join millions of smart shoppers. Get premium products</text>
  <text x="40" y="195" font-size="11" fill="#aaa">at prices that will make you smile.</text>
  <rect x="40" y="210" width="110" height="32" fill="#e50914" rx="4"/>
  <text x="60" y="230" font-size="11" font-weight="bold" fill="#fff">&#x25B6; Shop Now</text>
  <rect x="160" y="210" width="110" height="32" fill="none" stroke="#ccc" stroke-width="2" rx="4"/>
  <text x="180" y="230" font-size="11" font-weight="bold" fill="#fff">Browse All</text>
  <!-- Hero image mock -->
  <rect x="580" y="75" width="180" height="150" fill="#444" rx="6"/>
  <line x1="640" y1="140" x2="700" y2="140" stroke="#666" stroke-width="2"/>
  <line x1="650" y1="150" x2="690" y2="150" stroke="#666" stroke-width="2"/>
  <rect x="640" y="120" width="60" height="40" fill="#555" rx="4"/>
  
  <!-- Categories -->
  <rect x="0" y="250" width="800" height="55" fill="#141414"/>
  <rect x="20" y="265" width="50" height="26" fill="#e50914" rx="13"/>
  <text x="30" y="282" font-size="10" font-weight="bold" fill="#fff">All</text>
  <rect x="80" y="265" width="75" height="26" fill="#222" rx="13"/>
  <text x="90" y="282" font-size="10" fill="#aaa">Electronics</text>
  <rect x="165" y="265" width="65" height="26" fill="#222" rx="13"/>
  <text x="176" y="282" font-size="10" fill="#aaa">Fashion</text>
  <rect x="240" y="265" width="80" height="26" fill="#222" rx="13"/>
  <text x="250" y="282" font-size="10" fill="#aaa">Accessories</text>
  <rect x="330" y="265" width="60" height="26" fill="#222" rx="13"/>
  <text x="342" y="282" font-size="10" fill="#aaa">Gaming</text>
  <rect x="400" y="265" width="75" height="26" fill="#222" rx="13"/>
  <text x="410" y="282" font-size="10" fill="#aaa">&#x1F525; Hot Deals</text>
  
  <!-- Section Title -->
  <text x="20" y="320" font-size="16" font-weight="bold" fill="#fff">Trending Now</text>
  <text x="740" y="320" font-size="10" fill="#aaa">View All &gt;</text>
  
  <!-- Product Cards -->
  <!-- Card 1 -->
  <rect x="15" y="335" width="185" height="240" fill="#1f1f1f" rx="6"/>
  <rect x="15" y="335" width="185" height="130" fill="#333" rx="6"/>
  <!-- Image placeholder -->
  <rect x="50" y="365" width="115" height="70" fill="#555" rx="4"/>
  <circle cx="107" cy="400" r="20" fill="#666"/>
  <line x1="95" y1="400" x2="119" y2="400" stroke="#777" stroke-width="2"/>
  <line x1="107" y1="388" x2="107" y2="412" stroke="#777" stroke-width="2"/>
  <!-- Badge -->
  <rect x="22" y="342" width="60" height="16" fill="#e50914" rx="2"/>
  <text x="27" y="354" font-size="7" font-weight="bold" fill="#fff">BEST SELLER</text>
  <!-- Rating -->
  <rect x="135" y="342" width="55" height="16" fill="rgba(0,0,0,0.7)" rx="2"/>
  <text x="140" y="354" font-size="8" fill="#ffd700">&#x2605; 4.8</text>
  <!-- Product info -->
  <text x="25" y="485" font-size="9" fill="#aaa">ELECTRONICS</text>
  <text x="25" y="503" font-size="14" font-weight="bold" fill="#f0f0f0">Wireless Headphones</text>
  <text x="25" y="525" font-size="16" font-weight="bold" fill="#46d369">P89.99</text>
  <text x="85" y="525" font-size="11" fill="#666" text-decoration="line-through">P149.99</text>
  <rect x="140" y="550" width="50" height="20" fill="none" stroke="#555" stroke-width="1" rx="3"/>
  <text x="147" y="564" font-size="9" fill="#fff">+ Cart</text>
  
  <!-- Card 2 -->
  <rect x="210" y="335" width="185" height="240" fill="#1f1f1f" rx="6"/>
  <rect x="210" y="335" width="185" height="130" fill="#333" rx="6"/>
  <rect x="245" y="365" width="115" height="70" fill="#555" rx="4"/>
  <circle cx="302" cy="400" r="20" fill="#666"/>
  <line x1="290" y1="400" x2="314" y2="400" stroke="#777" stroke-width="2"/>
  <rect x="217" y="342" width="35" height="16" fill="#4caf50" rx="2"/>
  <text x="222" y="354" font-size="7" font-weight="bold" fill="#fff">NEW</text>
  <rect x="330" y="342" width="55" height="16" fill="rgba(0,0,0,0.7)" rx="2"/>
  <text x="335" y="354" font-size="8" fill="#ffd700">&#x2605; 4.6</text>
  <text x="220" y="485" font-size="9" fill="#aaa">ELECTRONICS</text>
  <text x="220" y="503" font-size="14" font-weight="bold" fill="#f0f0f0">Smart Watch Ultra</text>
  <text x="220" y="525" font-size="16" font-weight="bold" fill="#46d369">P69.99</text>
  <text x="280" y="525" font-size="11" fill="#666" text-decoration="line-through">P119.99</text>
  <rect x="335" y="550" width="50" height="20" fill="none" stroke="#555" stroke-width="1" rx="3"/>
  <text x="342" y="564" font-size="9" fill="#fff">+ Cart</text>
  
  <!-- Card 3 -->
  <rect x="405" y="335" width="185" height="240" fill="#1f1f1f" rx="6"/>
  <rect x="405" y="335" width="185" height="130" fill="#333" rx="6"/>
  <rect x="440" y="365" width="115" height="70" fill="#555" rx="4"/>
  <circle cx="497" cy="400" r="20" fill="#666"/>
  <line x1="485" y1="400" x2="509" y2="400" stroke="#777" stroke-width="2"/>
  <rect x="412" y="342" width="45" height="16" fill="#ff9800" rx="2"/>
  <text x="417" y="354" font-size="7" font-weight="bold" fill="#fff">TRENDING</text>
  <rect x="525" y="342" width="55" height="16" fill="rgba(0,0,0,0.7)" rx="2"/>
  <text x="530" y="354" font-size="8" fill="#ffd700">&#x2605; 4.7</text>
  <text x="415" y="485" font-size="9" fill="#aaa">FASHION</text>
  <text x="415" y="503" font-size="14" font-weight="bold" fill="#f0f0f0">Leather Backpack</text>
  <text x="415" y="525" font-size="16" font-weight="bold" fill="#46d369">P54.99</text>
  <text x="478" y="525" font-size="11" fill="#666" text-decoration="line-through">P89.99</text>
  <rect x="530" y="550" width="50" height="20" fill="none" stroke="#555" stroke-width="1" rx="3"/>
  <text x="537" y="564" font-size="9" fill="#fff">+ Cart</text>
  
  <!-- Card 4 -->
  <rect x="600" y="335" width="185" height="240" fill="#1f1f1f" rx="6"/>
  <rect x="600" y="335" width="185" height="130" fill="#333" rx="6"/>
  <rect x="635" y="365" width="115" height="70" fill="#555" rx="4"/>
  <circle cx="692" cy="400" r="20" fill="#666"/>
  <line x1="680" y1="400" x2="704" y2="400" stroke="#777" stroke-width="2"/>
  <rect x="607" y="342" width="30" height="16" fill="#e50914" rx="2"/>
  <text x="612" y="354" font-size="7" font-weight="bold" fill="#fff">SALE</text>
  <rect x="720" y="342" width="55" height="16" fill="rgba(0,0,0,0.7)" rx="2"/>
  <text x="725" y="354" font-size="8" fill="#ffd700">&#x2605; 4.4</text>
  <text x="610" y="485" font-size="9" fill="#aaa">ACCESSORIES</text>
  <text x="610" y="503" font-size="14" font-weight="bold" fill="#f0f0f0">Slim Sunglasses</text>
  <text x="610" y="525" font-size="16" font-weight="bold" fill="#46d369">P29.99</text>
  <text x="670" y="525" font-size="11" fill="#666" text-decoration="line-through">P59.99</text>
  <rect x="725" y="550" width="50" height="20" fill="none" stroke="#555" stroke-width="1" rx="3"/>
  <text x="732" y="564" font-size="9" fill="#fff">+ Cart</text>
</svg>