<svg xmlns="http://www.w3.org/2000/svg" viewBox="0 0 800 600" font-family="Inter, Arial, sans-serif">
  <rect width="800" height="600" fill="#141414"/>
  
  <!-- Navbar -->
  <rect x="0" y="0" width="800" height="50" fill="#1a1a1a"/>
  <line x1="0" y1="50" x2="800" y2="50" stroke="#333" stroke-width="1"/>
  <rect x="15" y="12" width="20" height="26" fill="#e50914" rx="3"/>
  <text x="40" y="30" font-size="13" font-weight="bold" fill="#fff">STREAMSTORE</text>
  <text x="155" y="30" font-size="11" fill="#e50914" font-weight="bold">Shop</text>
  <text x="200" y="30" font-size="11" fill="#aaa">Cart</text>
  <text x="245" y="30" font-size="11" fill="#aaa">Checkout</text>
  <text x="315" y="30" font-size="11" fill="#aaa">Contact</text>
  <rect x="580" y="14" width="140" height="22" fill="#2a2a2a" rx="4"/>
  <text x="590" y="30" font-size="9" fill="#666">Search products...</text>
  <circle cx="750" cy="25" r="8" fill="#333"/>
  <circle cx="756" cy="19" r="5" fill="#e50914"/>
  
  <!-- Page header -->
  <text x="20" y="80" font-size="22" font-weight="bold" fill="#fff">All Products</text>
  <text x="20" y="100" font-size="11" fill="#aaa">Browse our entire collection of 20 premium products.</text>
  
  <!-- Filter buttons -->
  <rect x="20" y="115" width="45" height="28" fill="#e50914" rx="4"/>
  <text x="28" y="134" font-size="10" font-weight="bold" fill="#fff">All</text>
  <rect x="73" y="115" width="75" height="28" fill="#222" rx="4"/>
  <text x="82" y="134" font-size="10" fill="#aaa">Electronics</text>
  <rect x="156" y="115" width="65" height="28" fill="#222" rx="4"/>
  <text x="166" y="134" font-size="10" fill="#aaa">Fashion</text>
  <rect x="229" y="115" width="80" height="28" fill="#222" rx="4"/>
  <text x="238" y="134" font-size="10" fill="#aaa">Accessories</text>
  <rect x="317" y="115" width="60" height="28" fill="#222" rx="4"/>
  <text x="328" y="134" font-size="10" fill="#aaa">Gaming</text>
  <rect x="385" y="115" width="75" height="28" fill="#222" rx="4"/>
  <text x="393" y="134" font-size="10" fill="#aaa">&#x1F525; Hot</text>
  
  <!-- Product Grid - Row 1 -->
  <!-- Card 1 -->
  <rect x="15" y="155" width="185" height="210" fill="#1f1f1f" rx="6"/>
  <rect x="15" y="155" width="185" height="110" fill="#333" rx="6"/>
  <rect x="50" y="180" width="115" height="60" fill="#555" rx="4"/>
  <circle cx="107" cy="210" r="16" fill="#666"/>
  <line x1="97" y1="210" x2="117" y2="210" stroke="#777" stroke-width="2"/>
  <line x1="107" y1="200" x2="107" y2="220" stroke="#777" stroke-width="2"/>
  <rect x="152" y="162" width="40" height="14" fill="rgba(0,0,0,0.7)" rx="2"/>
  <text x="155" y="173" font-size="7" fill="#ffd700">&#x2605; 4.5</text>
  <text x="23" y="280" font-size="8" fill="#aaa">ELECTRONICS</text>
  <text x="23" y="296" font-size="13" font-weight="bold" fill="#f0f0f0">Wireless Earbuds</text>
  <text x="23" y="316" font-size="15" font-weight="bold" fill="#46d369">P49.99</text>
  <text x="78" y="316" font-size="10" fill="#666" text-decoration="line-through">P79.99</text>
  <rect x="140" y="340" width="50" height="20" fill="none" stroke="#555" stroke-width="1" rx="3"/>
  <text x="147" y="354" font-size="9" fill="#fff">+ Cart</text>
  
  <!-- Card 2 -->
  <rect x="210" y="155" width="185" height="210" fill="#1f1f1f" rx="6"/>
  <rect x="210" y="155" width="185" height="110" fill="#333" rx="6"/>
  <rect x="245" y="180" width="115" height="60" fill="#555" rx="4"/>
  <circle cx="302" cy="210" r="16" fill="#666"/>
  <line x1="292" y1="210" x2="312" y2="210" stroke="#777" stroke-width="2"/>
  <rect x="347" y="162" width="40" height="14" fill="rgba(0,0,0,0.7)" rx="2"/>
  <text x="350" y="173" font-size="7" fill="#ffd700">&#x2605; 4.9</text>
  <rect x="215" y="162" width="25" height="14" fill="#e50914" rx="2"/>
  <text x="218" y="173" font-size="6" font-weight="bold" fill="#fff">HOT</text>
  <text x="218" y="280" font-size="8" fill="#aaa">GAMING</text>
  <text x="218" y="296" font-size="13" font-weight="bold" fill="#f0f0f0">Mech. Keyboard</text>
  <text x="218" y="316" font-size="15" font-weight="bold" fill="#46d369">P79.99</text>
  <text x="275" y="316" font-size="10" fill="#666" text-decoration="line-through">P129.99</text>
  <rect x="335" y="340" width="50" height="20" fill="none" stroke="#555" stroke-width="1" rx="3"/>
  <text x="342" y="354" font-size="9" fill="#fff">+ Cart</text>
  
  <!-- Card 3 -->
  <rect x="405" y="155" width="185" height="210" fill="#1f1f1f" rx="6"/>
  <rect x="405" y="155" width="185" height="110" fill="#333" rx="6"/>
  <rect x="440" y="180" width="115" height="60" fill="#555" rx="4"/>
  <circle cx="497" cy="210" r="16" fill="#666"/>
  <line x1="487" y1="210" x2="507" y2="210" stroke="#777" stroke-width="1"/>
  <rect x="542" y="162" width="40" height="14" fill="rgba(0,0,0,0.7)" rx="2"/>
  <text x="545" y="173" font-size="7" fill="#ffd700">&#x2605; 4.3</text>
  <text x="413" y="280" font-size="8" fill="#aaa">FASHION</text>
  <text x="413" y="296" font-size="13" font-weight="bold" fill="#f0f0f0">Casual Sneakers</text>
  <text x="413" y="316" font-size="15" font-weight="bold" fill="#46d369">P64.99</text>
  <text x="470" y="316" font-size="10" fill="#666" text-decoration="line-through">P99.99</text>
  <rect x="530" y="340" width="50" height="20" fill="none" stroke="#555" stroke-width="1" rx="3"/>
  <text x="537" y="354" font-size="9" fill="#fff">+ Cart</text>
  
  <!-- Card 4 -->
  <rect x="600" y="155" width="185" height="210" fill="#1f1f1f" rx="6"/>
  <rect x="600" y="155" width="185" height="110" fill="#333" rx="6"/>
  <rect x="635" y="180" width="115" height="60" fill="#555" rx="4"/>
  <circle cx="692" cy="210" r="16" fill="#666"/>
  <line x1="682" y1="210" x2="702" y2="210" stroke="#777" stroke-width="1"/>
  <rect x="737" y="162" width="40" height="14" fill="rgba(0,0,0,0.7)" rx="2"/>
  <text x="740" y="173" font-size="7" fill="#ffd700">&#x2605; 4.6</text>
  <text x="608" y="280" font-size="8" fill="#aaa">ACCESSORIES</text>
  <text x="608" y="296" font-size="13" font-weight="bold" fill="#f0f0f0">Analog Watch</text>
  <text x="608" y="316" font-size="15" font-weight="bold" fill="#46d369">P44.99</text>
  <text x="665" y="316" font-size="10" fill="#666" text-decoration="line-through">P79.99</text>
  <rect x="725" y="340" width="50" height="20" fill="none" stroke="#555" stroke-width="1" rx="3"/>
  <text x="732" y="354" font-size="9" fill="#fff">+ Cart</text>
  
  <!-- Row 2 -->
  <!-- Card 5 -->
  <rect x="15" y="378" width="185" height="210" fill="#1f1f1f" rx="6"/>
  <rect x="15" y="378" width="185" height="110" fill="#333" rx="6"/>
  <rect x="50" y="403" width="115" height="60" fill="#555" rx="4"/>
  <circle cx="107" cy="433" r="16" fill="#666"/>
  <line x1="97" y1="433" x2="117" y2="433" stroke="#777" stroke-width="1"/>
  <rect x="152" y="385" width="40" height="14" fill="rgba(0,0,0,0.7)" rx="2"/>
  <text x="155" y="396" font-size="7" fill="#ffd700">&#x2605; 4.4</text>
  <rect x="20" y="385" width="25" height="14" fill="#e50914" rx="2"/>
  <text x="24" y="396" font-size="6" font-weight="bold" fill="#fff">SALE</text>
  <text x="23" y="503" font-size="8" fill="#aaa">ELECTRONICS</text>
  <text x="23" y="519" font-size="13" font-weight="bold" fill="#f0f0f0">Smart Speaker</text>
  <text x="23" y="539" font-size="15" font-weight="bold" fill="#46d369">P34.99</text>
  <text x="78" y="539" font-size="10" fill="#666" text-decoration="line-through">P59.99</text>
  <rect x="140" y="563" width="50" height="20" fill="none" stroke="#555" stroke-width="1" rx="3"/>
  <text x="147" y="577" font-size="9" fill="#fff">+ Cart</text>
  
  <!-- Card 6 -->
  <rect x="210" y="378" width="185" height="210" fill="#1f1f1f" rx="6"/>
  <rect x="210" y="378" width="185" height="110" fill="#333" rx="6"/>
  <rect x="245" y="403" width="115" height="60" fill="#555" rx="4"/>
  <circle cx="302" cy="433" r="16" fill="#666"/>
  <line x1="292" y1="433" x2="312" y2="433" stroke="#777" stroke-width="1"/>
  <rect x="347" y="385" width="40" height="14" fill="rgba(0,0,0,0.7)" rx="2"/>
  <text x="350" y="396" font-size="7" fill="#ffd700">&#x2605; 4.7</text>
  <text x="218" y="503" font-size="8" fill="#aaa">GAMING</text>
  <text x="218" y="519" font-size="13" font-weight="bold" fill="#f0f0f0">Gaming Mouse</text>
  <text x="218" y="539" font-size="15" font-weight="bold" fill="#46d369">P39.99</text>
  <text x="275" y="539" font-size="10" fill="#666" text-decoration="line-through">P69.99</text>
  <rect x="335" y="563" width="50" height="20" fill="none" stroke="#555" stroke-width="1" rx="3"/>
  <text x="342" y="577" font-size="9" fill="#fff">+ Cart</text>
  
  <!-- Card 7 -->
  <rect x="405" y="378" width="185" height="210" fill="#1f1f1f" rx="6"/>
  <rect x="405" y="378" width="185" height="110" fill="#333" rx="6"/>
  <rect x="440" y="403" width="115" height="60" fill="#555" rx="4"/>
  <circle cx="497" cy="433" r="16" fill="#666"/>
  <line x1="487" y1="433" x2="507" y2="433" stroke="#777" stroke-width="1"/>
  <rect x="542" y="385" width="40" height="14" fill="rgba(0,0,0,0.7)" rx="2"/>
  <text x="545" y="396" font-size="7" fill="#ffd700">&#x2605; 4.2</text>
  <text x="413" y="503" font-size="8" fill="#aaa">FASHION</text>
  <text x="413" y="519" font-size="13" font-weight="bold" fill="#f0f0f0">Cotton T-Shirt</text>
  <text x="413" y="539" font-size="15" font-weight="bold" fill="#46d369">P24.99</text>
  <text x="470" y="539" font-size="10" fill="#666" text-decoration="line-through">P44.99</text>
  <rect x="530" y="563" width="50" height="20" fill="none" stroke="#555" stroke-width="1" rx="3"/>
  <text x="537" y="577" font-size="9" fill="#fff">+ Cart</text>
  
  <!-- Card 8 -->
  <rect x="600" y="378" width="185" height="210" fill="#1f1f1f" rx="6"/>
  <rect x="600" y="378" width="185" height="110" fill="#333" rx="6"/>
  <rect x="635" y="403" width="115" height="60" fill="#555" rx="4"/>
  <circle cx="692" cy="433" r="16" fill="#666"/>
  <line x1="682" y1="433" x2="702" y2="433" stroke="#777" stroke-width="1"/>
  <rect x="737" y="385" width="40" height="14" fill="rgba(0,0,0,0.7)" rx="2"/>
  <text x="740" y="396" font-size="7" fill="#ffd700">&#x2605; 4.5</text>
  <text x="608" y="503" font-size="8" fill="#aaa">ELECTRONICS</text>
  <text x="608" y="519" font-size="13" font-weight="bold" fill="#f0f0f0">BT Speaker</text>
  <text x="608" y="539" font-size="15" font-weight="bold" fill="#46d369">P59.99</text>
  <text x="665" y="539" font-size="10" fill="#666" text-decoration="line-through">P89.99</text>
  <rect x="725" y="563" width="50" height="20" fill="none" stroke="#555" stroke-width="1" rx="3"/>
  <text x="732" y="577" font-size="9" fill="#fff">+ Cart</text>
</svg>