<svg xmlns="http://www.w3.org/2000/svg" viewBox="0 0 800 520" font-family="Inter, Arial, sans-serif">
  <rect width="800" height="520" fill="#141414"/>
  
  <!-- Title -->
  <text x="25" y="35" font-size="20" font-weight="bold" fill="#fff">StreamStore - Site Map &amp; Wireframe Overview</text>
  <line x1="25" y1="45" x2="500" y2="45" stroke="#e50914" stroke-width="3"/>
  
  <!-- Home Page Thumbnail -->
  <rect x="20" y="60" width="240" height="200" fill="#1a1a1a" rx="4" stroke="#333" stroke-width="1"/>
  <!-- Nav -->
  <rect x="22" y="62" width="236" height="18" fill="#222" rx="2"/>
  <rect x="25" y="65" width="12" height="12" fill="#e50914" rx="2"/>
  <rect x="40" y="67" width="40" height="8" fill="#555" rx="1"/>
  <text x="22" y="113" font-size="9" font-weight="bold" fill="#e50914">HOME PAGE</text>
  <!-- Hero -->
  <rect x="22" y="85" width="236" height="45" fill="#222" rx="2"/>
  <rect x="25" y="90" width="80" height="6" fill="#e50914" rx="1"/>
  <rect x="25" y="100" width="120" height="8" fill="#fff" opacity="0.8" rx="1"/>
  <rect x="25" y="112" width="100" height="8" fill="#fff" opacity="0.5" rx="1"/>
  <!-- Categories -->
  <rect x="22" y="133" width="236" height="16" fill="#222" rx="2"/>
  <rect x="25" y="136" width="25" height="10" fill="#e50914" rx="5"/>
  <rect x="55" y="136" width="35" height="10" fill="#333" rx="5"/>
  <rect x="95" y="136" width="30" height="10" fill="#333" rx="5"/>
  <!-- Products -->
  <rect x="22" y="152" width="110" height="70" fill="#222" rx="2"/>
  <rect x="25" y="155" width="104" height="40" fill="#333" rx="1"/>
  <rect x="25" y="198" width="50" height="5" fill="#555" rx="1"/>
  <rect x="25" y="206" width="80" height="6" fill="#888" rx="1"/>
  <text x="80" y="240" font-size="7" fill="#888" text-anchor="middle">Hero + Categories + Products + Footer</text>
  <rect x="136" y="152" width="110" height="70" fill="#222" rx="2"/>
  <rect x="139" y="155" width="104" height="40" fill="#333" rx="1"/>
  <rect x="139" y="198" width="50" height="5" fill="#555" rx="1"/>
  <rect x="139" y="206" width="80" height="6" fill="#888" rx="1"/>
  
  <!-- Shop Page Thumbnail -->
  <rect x="280" y="60" width="240" height="200" fill="#1a1a1a" rx="4" stroke="#333" stroke-width="1"/>
  <rect x="282" y="62" width="236" height="18" fill="#222" rx="2"/>
  <rect x="285" y="65" width="12" height="12" fill="#e50914" rx="2"/>
  <rect x="300" y="67" width="40" height="8" fill="#555" rx="1"/>
  <text x="282" y="113" font-size="9" font-weight="bold" fill="#e50914">SHOP PAGE</text>
  <text x="282" y="92" font-size="8" font-weight="bold" fill="#fff">Products</text>
  <!-- Filters -->
  <rect x="282" y="100" width="236" height="14" fill="#222" rx="2"/>
  <rect x="285" y="103" width="20" height="8" fill="#e50914" rx="2"/>
  <rect x="310" y="103" width="30" height="8" fill="#333" rx="2"/>
  <rect x="345" y="103" width="25" height="8" fill="#333" rx="2"/>
  <!-- Grid -->
  <rect x="282" y="118" width="110" height="80" fill="#222" rx="2"/>
  <rect x="285" y="121" width="104" height="45" fill="#333" rx="1"/>
  <rect x="285" y="170" width="40" height="5" fill="#555" rx="1"/>
  <rect x="285" y="178" width="60" height="6" fill="#888" rx="1"/>
  <text x="400" y="240" font-size="7" fill="#888" text-anchor="middle">Filters + Product Grid (20 products)</text>
  <rect x="395" y="118" width="110" height="80" fill="#222" rx="2"/>
  <rect x="398" y="121" width="104" height="45" fill="#333" rx="1"/>
  <rect x="398" y="170" width="40" height="5" fill="#555" rx="1"/>
  <rect x="398" y="178" width="60" height="6" fill="#888" rx="1"/>
  <rect x="282" y="202" width="110" height="50" fill="#222" rx="2"/>
  <rect x="285" y="205" width="104" height="25" fill="#333" rx="1"/>
  <rect x="285" y="233" width="40" height="5" fill="#555" rx="1"/>
  <rect x="395" y="202" width="110" height="50" fill="#222" rx="2"/>
  <rect x="398" y="205" width="104" height="25" fill="#333" rx="1"/>
  <rect x="398" y="233" width="40" height="5" fill="#555" rx="1"/>
  
  <!-- Product Detail Thumbnail -->
  <rect x="540" y="60" width="240" height="200" fill="#1a1a1a" rx="4" stroke="#333" stroke-width="1"/>
  <rect x="542" y="62" width="236" height="18" fill="#222" rx="2"/>
  <rect x="545" y="65" width="12" height="12" fill="#e50914" rx="2"/>
  <rect x="560" y="67" width="40" height="8" fill="#555" rx="1"/>
  <text x="542" y="113" font-size="9" font-weight="bold" fill="#e50914">PRODUCT DETAIL</text>
  <!-- Image + Details -->
  <rect x="542" y="85" width="100" height="80" fill="#333" rx="2"/>
  <rect x="545" y="90" width="94" height="50" fill="#444" rx="1"/>
  <text x="592" y="115" font-size="6" fill="#666" text-anchor="middle">Product Image</text>
  <rect x="648" y="85" width="128" height="18" fill="#e50914" rx="2"/>
  <rect x="648" y="107" width="128" height="6" fill="#888" rx="1"/>
  <rect x="648" y="118" width="60" height="8" fill="#46d369" rx="1"/>
  <rect x="712" y="118" width="40" height="6" fill="#555" rx="1"/>
  <rect x="648" y="130" width="128" height="6" fill="#888" rx="1"/>
  <rect x="648" y="140" width="128" height="6" fill="#888" rx="1"/>
  <rect x="648" y="150" width="90" height="6" fill="#888" rx="1"/>
  <text x="660" y="240" font-size="7" fill="#888" text-anchor="middle">Image + Details + Reviews</text>
  <!-- Reviews -->
  <rect x="542" y="173" width="236" height="80" fill="#222" rx="2"/>
  <text x="548" y="188" font-size="8" font-weight="bold" fill="#888">Customer Reviews</text>
  <rect x="548" y="195" width="105" height="50" fill="#222" rx="2" stroke="#333" stroke-width="1"/>
  <rect x="552" y="200" width="20" height="20" fill="#e50914" rx="10"/>
  <text x="557" y="213" font-size="7" font-weight="bold" fill="#fff">JD</text>
  <rect x="577" y="200" width="50" height="6" fill="#888" rx="1"/>
  <rect x="552" y="210" width="40" height="4" fill="#ffd700" rx="1"/>
  <rect x="552" y="218" width="95" height="12" fill="#555" rx="1"/>
  <rect x="660" y="195" width="105" height="50" fill="#222" rx="2" stroke="#333" stroke-width="1"/>
  <rect x="664" y="200" width="20" height="20" fill="#46d369" rx="10"/>
  <text x="669" y="213" font-size="7" font-weight="bold" fill="#fff">SM</text>
  
  <!-- Cart Page Thumbnail -->
  <rect x="20" y="275" width="240" height="200" fill="#1a1a1a" rx="4" stroke="#333" stroke-width="1"/>
  <rect x="22" y="277" width="236" height="18" fill="#222" rx="2"/>
  <rect x="25" y="280" width="12" height="12" fill="#e50914" rx="2"/>
  <rect x="40" y="282" width="40" height="8" fill="#555" rx="1"/>
  <text x="22" y="325" font-size="9" font-weight="bold" fill="#e50914">CART PAGE</text>
  <text x="22" y="307" font-size="8" font-weight="bold" fill="#fff">Shopping Cart</text>
  <!-- Table -->
  <rect x="22" y="315" width="156" height="120" fill="#222" rx="2"/>
  <rect x="25" y="318" width="150" height="12" fill="#333" rx="1"/>
  <text x="28" y="327" font-size="6" fill="#888">Product | Price | Qty | Total</text>
  <rect x="25" y="333" width="30" height="30" fill="#444" rx="1"/>
  <rect x="60" y="335" width="50" height="5" fill="#888" rx="1"/>
  <rect x="60" y="343" width="30" height="5" fill="#555" rx="1"/>
  <rect x="120" y="340" width="25" height="8" fill="#46d369" rx="1"/>
  <line x1="25" y1="367" x2="175" y2="367" stroke="#333" stroke-width="1"/>
  <rect x="25" y="370" width="30" height="30" fill="#444" rx="1"/>
  <rect x="60" y="372" width="50" height="5" fill="#888" rx="1"/>
  <rect x="60" y="380" width="30" height="5" fill="#555" rx="1"/>
  <rect x="120" y="377" width="25" height="8" fill="#46d369" rx="1"/>
  <line x1="25" y1="404" x2="175" y2="404" stroke="#333" stroke-width="1"/>
  <rect x="25" y="407" width="30" height="30" fill="#444" rx="1"/>
  <rect x="60" y="409" width="50" height="5" fill="#888" rx="1"/>
  <rect x="60" y="417" width="30" height="5" fill="#555" rx="1"/>
  <rect x="120" y="414" width="25" height="8" fill="#46d369" rx="1"/>
  <!-- Summary sidebar -->
  <rect x="182" y="315" width="70" height="120" fill="#222" rx="2"/>
  <text x="188" y="330" font-size="7" font-weight="bold" fill="#888">Summary</text>
  <line x1="186" y1="335" x2="248" y2="335" stroke="#333" stroke-width="1"/>
  <rect x="186" y="340" width="60" height="5" fill="#555" rx="1"/>
  <rect x="186" y="350" width="60" height="5" fill="#555" rx="1"/>
  <line x1="186" y1="360" x2="248" y2="360" stroke="#333" stroke-width="1"/>
  <rect x="186" y="365" width="60" height="6" fill="#888" rx="1"/>
  <text x="217" y="455" font-size="7" fill="#888" text-anchor="middle">Cart Items + Summary</text>
  
  <!-- Checkout Thumbnail -->
  <rect x="280" y="275" width="240" height="200" fill="#1a1a1a" rx="4" stroke="#333" stroke-width="1"/>
  <rect x="282" y="277" width="236" height="18" fill="#222" rx="2"/>
  <rect x="285" y="280" width="12" height="12" fill="#e50914" rx="2"/>
  <rect x="300" y="282" width="40" height="8" fill="#555" rx="1"/>
  <text x="282" y="325" font-size="9" font-weight="bold" fill="#e50914">CHECKOUT PAGE</text>
  <text x="282" y="307" font-size="8" font-weight="bold" fill="#fff">Checkout</text>
  <!-- Form -->
  <rect x="282" y="315" width="145" height="130" fill="#222" rx="2"/>
  <rect x="285" y="320" width="20" height="20" fill="#e50914" rx="10"/>
  <text x="287" y="334" font-size="6" font-weight="bold" fill="#fff">1</text>
  <rect x="310" y="320" width="60" height="6" fill="#888" rx="1"/>
  <rect x="285" y="345" width="130" height="10" fill="#333" rx="1"/>
  <rect x="285" y="358" width="130" height="10" fill="#333" rx="1"/>
  <rect x="285" y="371" width="130" height="10" fill="#333" rx="1"/>
  <rect x="285" y="388" width="20" height="20" fill="#e50914" rx="10"/>
  <text x="287" y="402" font-size="6" font-weight="bold" fill="#fff">2</text>
  <rect x="310" y="390" width="60" height="6" fill="#888" rx="1"/>
  <rect x="285" y="412" width="130" height="10" fill="#333" rx="1"/>
  <rect x="285" y="425" width="130" height="10" fill="#333" rx="1"/>
  <!-- Summary -->
  <rect x="432" y="315" width="78" height="130" fill="#222" rx="2"/>
  <text x="438" y="330" font-size="7" font-weight="bold" fill="#888">Summary</text>
  <line x1="436" y1="335" x2="506" y2="335" stroke="#333" stroke-width="1"/>
  <rect x="436" y="340" width="70" height="5" fill="#555" rx="1"/>
  <rect x="436" y="350" width="70" height="5" fill="#555" rx="1"/>
  <line x1="436" y1="360" x2="506" y2="360" stroke="#333" stroke-width="1"/>
  <rect x="436" y="365" width="70" height="6" fill="#888" rx="1"/>
  <text x="400" y="475" font-size="7" fill="#888" text-anchor="middle">Form + Order Summary</text>
  
  <!-- Contact Thumbnail -->
  <rect x="540" y="275" width="240" height="200" fill="#1a1a1a" rx="4" stroke="#333" stroke-width="1"/>
  <rect x="542" y="277" width="236" height="18" fill="#222" rx="2"/>
  <rect x="545" y="280" width="12" height="12" fill="#e50914" rx="2"/>
  <rect x="560" y="282" width="40" height="8" fill="#555" rx="1"/>
  <text x="542" y="325" font-size="9" font-weight="bold" fill="#e50914">CONTACT PAGE</text>
  <text x="542" y="307" font-size="8" font-weight="bold" fill="#fff">Get in Touch</text>
  <!-- Cards -->
  <rect x="542" y="318" width="70" height="50" fill="#222" rx="2"/>
  <circle cx="577" cy="332" r="12" fill="#333"/>
  <text x="573" y="336" font-size="8" fill="#e50914">@</text>
  <text x="555" y="360" font-size="6" fill="#888" text-anchor="middle">Email</text>
  <rect x="617" y="318" width="70" height="50" fill="#222" rx="2"/>
  <circle cx="652" cy="332" r="12" fill="#333"/>
  <text x="649" y="336" font-size="8" fill="#e50914">&#x260E;</text>
  <text x="652" y="360" font-size="6" fill="#888" text-anchor="middle">Phone</text>
  <rect x="692" y="318" width="70" height="50" fill="#222" rx="2"/>
  <circle cx="727" cy="332" r="12" fill="#333"/>
  <text x="723" y="336" font-size="8" fill="#e50914">&#x2709;</text>
  <text x="727" y="360" font-size="6" fill="#888" text-anchor="middle">Address</text>
  <!-- Form -->
  <rect x="542" y="375" width="120" height="60" fill="#222" rx="2"/>
  <rect x="545" y="380" width="110" height="8" fill="#333" rx="1"/>
  <rect x="545" y="392" width="110" height="8" fill="#333" rx="1"/>
  <rect x="545" y="404" width="110" height="8" fill="#333" rx="1"/>
  <rect x="545" y="416" width="50" height="12" fill="#e50914" rx="2"/>
  <!-- FAQ -->
  <rect x="668" y="375" width="100" height="60" fill="#222" rx="2"/>
  <rect x="672" y="380" width="90" height="6" fill="#555" rx="1"/>
  <rect x="672" y="390" width="90" height="6" fill="#555" rx="1"/>
  <rect x="672" y="400" width="90" height="6" fill="#555" rx="1"/>
  <rect x="672" y="410" width="90" height="6" fill="#555" rx="1"/>
  <text x="660" y="478" font-size="7" fill="#888" text-anchor="middle">Cards + Form + FAQ</text>
  
  <!-- Legend -->
  <rect x="200" y="500" width="10" height="10" fill="#222" rx="1"/>
  <text x="215" y="509" font-size="9" fill="#888">Page Content</text>
  <rect x="350" y="500" width="10" height="10" fill="#333" rx="1"/>
  <text x="365" y="509" font-size="9" fill="#888">Images / Inputs</text>
  <rect x="500" y="500" width="10" height="10" fill="#e50914" rx="1"/>
  <text x="515" y="509" font-size="9" fill="#888">Interactive Elements</text>
</svg>